<?xml version="1.0" encoding="UTF-8"?>
<svg version="1.1" viewBox="0 0 160 160" xmlns="http://www.w3.org/2000/svg"><path d="m53 5.0002h54v12h-54v-5.52e-4z" fill="#5abdff"/><path d="m34 15h92v12h-92v-6e-4z" fill="#53b8fb"/><path d="m27 25h106v12h-106v-6e-4z" fill="#4db3f7"/><path d="m25 35h110v12h-110v-6e-4z" fill="#46aef4"/><path d="m15 45h130v12h-130v-6e-4z" fill="#40a9f0"/><path d="m5 55h150v12h-150v-6e-4z" fill="#39a5ec"/><path d="m5 65h150v12h-150v-6e-4z" fill="#33a0e9"/><path d="m5 75h150v12h-150v-6e-4z" fill="#2d9be5"/><path d="m5 85h150v12h-150v-6e-4z" fill="#2696e1"/><path d="m10 95h140v12h-140v-6e-4z" fill="#2091de"/><path d="m12 105h136v12h-136z" fill="#198dda"/><path d="m17 115h126v12h-126z" fill="#1388d6"/><path d="m25 125h110v12h-110z" fill="#0c83d3"/><path d="m37 135h86v12h-86z" fill="#067ecf"/><path d="m53 145h54v10h-54z" fill="#007acc"/><path d="m80 0a80 80 0 0 0-80 80 80 80 0 0 0 80 80 80 80 0 0 0 80-80 80 80 0 0 0-80-80zm-0.0176 10a5.0005 5.0005 0 0 1 0.0176 0c19.3 0 36.836 7.84 49.498 20.502a5.0005 5.0005 0 0 1 0 7.0703l-14.369 14.369c6.1674 7.7029 9.8711 17.457 9.8711 28.059 0 24.794-20.206 45-45 45-14.117 0-26.74-6.5567-35-16.775v20.289c10.196 7.3653 22.39 11.483 35.002 11.486 33.195 0.00832 59.998-26.804 59.998-60a5 5 0 0 1 5-5 5 5 0 0 1 5 5c0 38.601-31.4 70.01-70.002 70-15.619-4e-3 -30.784-5.2496-43.08-14.871a5.0005 5.0005 0 0 1-1.918-3.9375v-51.191c0-24.794 20.206-45 45-45 10.601 0 20.356 3.7037 28.059 9.8711l10.666-10.666c-10.452-8.8516-23.93-14.205-38.725-14.205-15.886 0.06243-31.094 6.421-42.299 17.684a5 5 0 0 1-7.0723 0.01758 5 5 0 0 1-0.0176-7.0723c13.074-13.142 30.834-20.561 49.371-20.629zm-4.9824 35.359c-17.003 2.4134-30 16.951-30 34.641s12.997 32.227 30 34.641zm10 0v69.281c17.003-2.4134 30-16.951 30-34.641s-12.997-32.227-30-34.641z" fill="#4b4b5e"/></svg>
